<svg xmlns="http://www.w3.org/2000/svg" viewBox="0 0 64 64"><defs><style>.cls-1,.cls-2{fill:none;}.cls-1{stroke:#a9adaa;stroke-miterlimit:10;}</style></defs><g id="Capa_2" data-name="Capa 2"><g id="Capa_1-2" data-name="Capa 1"><path class="cls-1" d="M16.5,14.5h14a0,0,0,0,1,0,0v14a4,4,0,0,1-4,4h-14a0,0,0,0,1,0,0v-14A4,4,0,0,1,16.5,14.5Z"/><path class="cls-1" d="M33.5,14.5h14a4,4,0,0,1,4,4v14a0,0,0,0,1,0,0h-14a4,4,0,0,1-4-4v-14A0,0,0,0,1,33.5,14.5Z"/><path class="cls-1" d="M12.5,35.5h14a4,4,0,0,1,4,4v14a0,0,0,0,1,0,0h-14a4,4,0,0,1-4-4v-14A0,0,0,0,1,12.5,35.5Z"/><circle class="cls-1" cx="42.5" cy="44.5" r="9"/><rect class="cls-2" width="64" height="64"/></g></g></svg>