<svg xmlns="http://www.w3.org/2000/svg" viewBox="0 0 64 64"><defs><style>.cls-1{fill:#adadad;}</style></defs><g id="Capa_2" data-name="Capa 2"><g id="Capa_1-2" data-name="Capa 1"><path class="cls-1" d="M31.07.25V27.32a3.75,3.75,0,0,1-3.75,3.75H.25V4A3.75,3.75,0,0,1,4,.25H31.07M31.32,0H4A4,4,0,0,0,0,4V31.32H27.32a4,4,0,0,0,4-4V0Z"/><path class="cls-1" d="M60,.25A3.75,3.75,0,0,1,63.75,4V31.07H36.68a3.75,3.75,0,0,1-3.75-3.75V.25H60M60,0H32.68V27.32a4,4,0,0,0,4,4H64V4a4,4,0,0,0-4-4Z"/><path class="cls-1" d="M27.32,32.93a3.75,3.75,0,0,1,3.75,3.75V63.75H4A3.75,3.75,0,0,1,.25,60V32.93H27.32m0-.25H0V60a4,4,0,0,0,4,4H31.32V36.68a4,4,0,0,0-4-4Z"/><path class="cls-1" d="M48.34,32.93A15.41,15.41,0,1,1,32.93,48.34,15.42,15.42,0,0,1,48.34,32.93m0-.25A15.66,15.66,0,1,0,64,48.34,15.66,15.66,0,0,0,48.34,32.68Z"/></g></g></svg>