<svg xmlns="http://www.w3.org/2000/svg" viewBox="0 0 40 40"><defs><style>.cls-1{fill:none;stroke:#000;stroke-miterlimit:10;}</style></defs><g id="Capa_2" data-name="Capa 2"><g id="Capa_1-2" data-name="Capa 1"><path class="cls-1" d="M4.5.5h14a0,0,0,0,1,0,0v14a4,4,0,0,1-4,4H.5a0,0,0,0,1,0,0V4.5A4,4,0,0,1,4.5.5Z"/><path class="cls-1" d="M21.5.5h14a4,4,0,0,1,4,4v14a0,0,0,0,1,0,0h-14a4,4,0,0,1-4-4V.5A0,0,0,0,1,21.5.5Z"/><path class="cls-1" d="M.5,21.5h14a4,4,0,0,1,4,4v14a0,0,0,0,1,0,0H4.5a4,4,0,0,1-4-4v-14A0,0,0,0,1,.5,21.5Z"/><circle class="cls-1" cx="30.5" cy="30.5" r="9"/></g></g></svg>