<svg xmlns="http://www.w3.org/2000/svg" viewBox="0 0 64 64"><defs><style>.cls-1,.cls-2{fill:none;}.cls-2{stroke:#343a40;stroke-miterlimit:10;stroke-width:1.5px;}</style></defs><g id="Capa_2" data-name="Capa 2"><g id="Capa_3" data-name="Capa 3"><rect class="cls-1" width="64" height="64"/></g><g id="Capa_2-2" data-name="Capa 2"><polygon class="cls-2" points="12 54 12 39 25 32 25 39 38 32 38 39 51 32 51 54 12 54"/><rect class="cls-2" x="16" y="42" width="5" height="3"/><rect class="cls-2" x="29" y="42" width="5" height="3"/><rect class="cls-2" x="42" y="42" width="5" height="3"/><polygon class="cls-2" points="38 54 26 54 26 49 32 49 38 49 38 54"/><line class="cls-2" x1="32" y1="49" x2="32" y2="54"/><polyline class="cls-2" points="42 36.85 43 14 47 14 47.86 33.69 38 39"/><line class="cls-2" x1="43" y1="17" x2="47" y2="17"/></g></g></svg>