<svg width="250" height="70" viewBox="0 0 250 70" fill="none" xmlns="http://www.w3.org/2000/svg">
<g clip-path="url(#clip0_2002_1331)">
<path d="M142.063 8.87865C142.429 7.11216 143.275 5.58541 144.553 4.31522C145.832 3.04503 147.531 2.03561 149.609 1.30799C151.687 0.580362 154.139 0.13874 156.91 0.00415039C156.851 2.78006 156.477 5.24052 155.808 7.33928C155.14 9.43383 154.176 11.1667 152.94 12.4747C151.708 13.7828 150.202 14.6744 148.444 15.0866C146.686 15.4988 144.688 15.4441 142.459 14.8553C141.811 12.6429 141.698 10.6451 142.063 8.87865Z" fill="#AACF00"/>
<path d="M73.0737 37.5799C73.0737 37.5799 52.8642 55.699 43.8005 37.5799V37.5883C52.86 19.4692 73.0737 37.5883 73.0737 37.5883" fill="#AACF00"/>
<path d="M60.927 8.80725C61.0195 8.90819 60.8218 11.1205 60.048 14.0352C59.4928 16.1298 58.6053 18.565 57.3351 20.853C55.842 23.5406 53.8442 26.0137 51.1356 27.389C48.3387 28.798 44.852 29.063 40.5703 27.3301C39.2455 22.8971 39.8385 19.4524 41.5083 16.8027C43.1359 14.2329 45.7857 12.479 48.6036 11.2467C51.001 10.1994 53.5078 9.5517 55.6444 9.19419C58.6179 8.7021 60.8387 8.71472 60.9312 8.81566" fill="#AACF00"/>
<path d="M35.1531 9.86337e-05C35.4181 0.0463638 36.5116 1.67406 37.5336 4.08405C38.2865 5.87157 38.787 7.79788 39.0772 10.1322C39.4095 12.7693 39.3212 15.0405 38.1856 17.3874C36.9785 19.8941 34.8461 21.6059 31.0986 22.5901C27.8853 20.4114 26.5604 18.0561 26.2534 15.2886C25.9674 12.6978 26.7917 10.5528 27.9862 8.17641C29.0419 6.07345 30.2448 4.49202 31.5528 3.0578C33.3193 1.12729 34.8923 -0.0461665 35.1573 9.86337e-05" fill="#AACF00"/>
<path d="M11.3013 6.96087C11.6504 6.75899 13.2907 7.19641 15.2675 8.21845C16.7901 9.01336 18.4514 10.2163 19.9277 11.7052C21.5091 13.2992 22.8676 15.133 23.3681 17.2444C23.9317 19.6123 23.5027 22.1653 21.6016 24.6636C18.4893 25.0842 16.054 24.1967 14.2749 22.5354C12.6893 21.0549 11.7682 18.9688 11.1625 16.8069C10.5989 14.7881 10.3718 12.7482 10.4349 11.0322C10.5232 8.80727 10.9522 7.16696 11.3013 6.96087Z" fill="#AACF00"/>
<path d="M0.685539 26.6067C0.8706 26.0977 2.15761 25.4584 3.94513 25.0757C5.40458 24.7687 7.1921 24.7308 9.01747 25.0084C10.8302 25.2818 12.5967 25.7991 13.9636 26.8632C15.6124 28.146 16.6386 30.0177 16.6134 32.4234C15.0109 34.3624 12.5715 35.2709 10.09 34.8418C7.37716 34.375 4.89987 32.8062 3.03244 30.821C2.38473 30.1354 1.78749 29.3826 1.30381 28.5708C0.992572 28.0493 0.454214 27.2333 0.685539 26.5982" fill="#AACF00"/>
<path d="M4.02508 45.8699C3.79375 45.2348 4.21014 44.1371 5.10179 43.0099C5.89251 42.0173 7.0912 41.0709 8.5128 40.3391C9.78719 39.6872 11.1163 39.2245 12.4117 39.2119C14.1529 39.1909 15.7007 39.847 16.6386 41.2476C16.8237 42.9215 16.0708 44.4231 14.7292 45.5334C13.7281 46.362 12.4201 46.8667 11.0237 47.1905C9.46754 47.5565 7.93659 47.6069 6.69584 47.3588C5.28686 47.0728 4.2564 46.505 4.02508 45.8699Z" fill="#AACF00"/>
<path d="M3.10398 59.619C13.808 52.7928 26.3964 49.8781 38.7744 50.3828C50.9085 50.8371 62.7818 55.0977 72.7751 62.3276L73.5532 62.8828C73.7256 63.009 73.7803 63.2571 73.6709 63.4506L72.7498 65.0699C72.6405 65.2634 72.4134 65.3223 72.2325 65.2129C62.0458 58.9461 50.4963 55.6655 38.7618 56.2291C27.7254 56.7296 16.7312 60.17 7.70105 66.9794L5.20694 68.973C4.76532 69.3263 4.13863 69.2127 3.8274 68.7164L0.164037 62.8576C-0.142995 62.3655 -0.00840548 61.6968 0.458452 61.3855L3.10398 59.619Z" fill="white"/>
<path d="M136.844 49.0915C136.844 53.0451 136.192 56.3005 134.892 58.8577C133.593 61.4149 131.721 63.459 129.286 64.9941C126.851 66.5293 123.932 67.6018 120.529 68.2159C117.127 68.8299 113.324 69.137 109.118 69.137H88.9006V1.12719C92.3032 0.786508 95.5207 0.513123 98.5574 0.307032C101.598 0.105148 104.517 0 107.323 0C112.328 0 116.529 0.391151 119.932 1.17766C123.334 1.96417 126.051 3.10397 128.087 4.60548C130.123 6.107 131.574 7.94499 132.44 10.1279C133.307 12.3107 133.74 14.7628 133.74 17.4924C133.74 19.7426 133.424 21.7194 132.789 23.4228C132.154 25.1262 131.338 26.6277 130.337 27.9231C129.336 29.2185 128.234 30.2742 127.036 31.0944C125.833 31.9145 124.701 32.5244 123.633 32.9366C124.836 33.2773 126.203 33.7736 127.738 34.4213C129.273 35.069 130.707 36.0069 132.041 37.235C133.374 38.4632 134.51 40.0488 135.443 41.9919C136.377 43.9351 136.844 46.303 136.844 49.0999V49.0915ZM119.73 18.3084C119.73 15.1035 118.636 12.8869 116.458 11.663C114.275 10.4349 111.339 9.82083 107.651 9.82083C106.376 9.82083 105.333 9.85448 104.53 9.92177C103.726 9.98907 103.054 10.0606 102.515 10.1279V29.147H109.161C112.45 29.147 115.032 28.1418 116.912 26.1314C118.792 24.121 119.73 21.5133 119.73 18.3084ZM108.151 59.0091C110.431 59.0091 112.475 58.8745 114.288 58.6011C116.1 58.3277 117.64 57.802 118.914 57.0155C120.188 56.2332 121.16 55.1733 121.829 53.8442C122.497 52.5151 122.834 50.7613 122.834 48.5784C122.834 44.8982 121.627 42.2906 119.213 40.7554C116.798 39.2202 113.682 38.4548 109.859 38.4548H102.515V59.0091H108.147H108.151Z" fill="white"/>
<path d="M155.829 68.7415C155.569 68.8719 154.976 68.9686 154.059 69.0359C153.142 69.099 152.158 69.1326 151.11 69.1326C149.798 69.1326 148.62 69.0191 147.573 68.7878C146.526 68.5564 145.622 68.1316 144.869 67.5092C144.116 66.8867 143.523 66.0497 143.098 65.0024C142.669 63.9552 142.459 62.6093 142.459 60.9732V21.1641C142.459 21.101 142.951 21.0169 143.935 20.9202C144.919 20.8234 145.933 20.7729 146.984 20.7729C148.036 20.7729 149.079 20.8697 150.13 21.0674C151.178 21.265 152.128 21.6436 152.982 22.1988C153.832 22.7581 154.521 23.5447 155.047 24.5583C155.573 25.5761 155.834 26.901 155.834 28.5413V68.7457L155.829 68.7415Z" fill="white"/>
<path d="M208.811 44.1663C208.811 47.4427 208.399 50.5887 207.583 53.6044C206.763 56.62 205.421 59.274 203.554 61.5662C201.687 63.8626 199.277 65.6964 196.328 67.0717C193.38 68.4471 189.805 69.1369 185.612 69.1369C181.418 69.1369 177.86 68.4639 174.945 67.1222C172.031 65.7805 169.654 63.9762 167.821 61.7176C165.987 59.4548 164.641 56.8345 163.791 53.8525C162.937 50.8705 162.513 47.7413 162.513 44.4649C162.513 41.1885 163.005 37.9626 163.989 34.9806C164.973 31.9986 166.428 29.3783 168.363 27.1155C170.294 24.8527 172.737 23.0694 175.686 21.7571C178.634 20.4449 182.074 19.793 186.007 19.793C190.137 19.793 193.657 20.4491 196.572 21.7571C199.487 23.0694 201.846 24.8401 203.651 27.065C205.451 29.2941 206.763 31.8808 207.583 34.8291C208.403 37.7775 208.811 40.8899 208.811 44.1663ZM195.445 44.263C195.445 42.4923 195.315 40.7427 195.05 39.0056C194.785 37.2686 194.293 35.746 193.569 34.4338C192.846 33.1215 191.857 32.0574 190.608 31.2373C189.355 30.4171 187.778 30.0092 185.868 30.0092C183.959 30.0092 182.36 30.434 181.078 31.2878C179.795 32.1416 178.773 33.2393 178.016 34.581C177.259 35.9269 176.712 37.4494 176.384 39.1528C176.056 40.8562 175.892 42.5933 175.892 44.364C175.892 46.1347 176.039 47.9011 176.337 49.6718C176.632 51.4425 177.145 53.0324 177.868 54.4414C178.592 55.8503 179.597 56.9817 180.88 57.8313C182.163 58.6851 183.761 59.1099 185.67 59.1099C187.58 59.1099 189.275 58.6851 190.562 57.8313C191.845 56.9817 192.85 55.8503 193.573 54.4414C194.297 53.0324 194.793 51.4425 195.054 49.6718C195.319 47.9011 195.449 46.101 195.449 44.2672L195.445 44.263Z" fill="white"/>
<path d="M249.31 26.5689C249.31 27.5531 248.999 28.7181 248.376 30.0598C247.754 31.4057 247.081 32.6633 246.362 33.8451C245.706 33.3236 244.902 32.781 243.952 32.2216C243.001 31.6665 241.937 31.1407 240.755 30.6486C239.578 30.1565 238.345 29.7486 237.071 29.4205C235.792 29.0924 234.497 28.9284 233.189 28.9284C232.465 28.9284 231.713 28.9789 230.926 29.0756C230.14 29.1723 229.433 29.37 228.815 29.6644C228.192 29.9588 227.667 30.3879 227.242 30.943C226.817 31.5024 226.602 32.2385 226.602 33.1554C226.602 35.3845 228.996 37.0248 233.778 38.0721C235.742 38.4674 237.693 38.9721 239.628 39.5946C241.559 40.2171 243.296 41.0877 244.839 42.1981C246.379 43.3127 247.624 44.7216 248.574 46.425C249.525 48.1284 250 50.2608 250 52.8138C250 55.3668 249.491 57.7642 248.477 59.7915C247.46 61.8229 246.067 63.5263 244.301 64.9016C242.53 66.277 240.448 67.3285 238.059 68.0477C235.666 68.7669 233.063 69.1286 230.245 69.1286C227.427 69.1286 224.92 68.9141 222.922 68.4893C220.924 68.0603 219.267 67.5556 217.959 66.9668C217.042 66.5756 216.041 65.9994 214.96 65.2465C213.88 64.4937 213.337 63.4632 213.337 62.151C213.337 61.0364 213.665 59.8756 214.321 58.6601C214.977 57.4488 215.73 56.187 216.584 54.8747C217.173 55.4005 217.913 55.9388 218.796 56.4982C219.68 57.0576 220.697 57.5791 221.846 58.0712C222.99 58.5633 224.222 58.9713 225.53 59.2994C226.842 59.6274 228.184 59.7915 229.559 59.7915C230.409 59.7915 231.296 59.7284 232.213 59.5938C233.13 59.4634 233.933 59.2026 234.623 58.8073C235.313 58.4161 235.885 57.8904 236.343 57.2343C236.802 56.5781 237.033 55.7285 237.033 54.6771C237.033 52.776 236.297 51.4175 234.821 50.5973C233.345 49.7772 231.136 49.0748 228.184 48.4817C226.283 48.0906 224.449 47.5648 222.678 46.9087C220.908 46.2526 219.335 45.3862 217.959 44.3052C216.584 43.2243 215.486 41.8658 214.666 40.2255C213.846 38.5894 213.438 36.5874 213.438 34.2279C213.438 31.8683 213.964 29.8032 215.011 28.0367C216.058 26.2661 217.45 24.7603 219.187 23.5154C220.924 22.2704 222.939 21.3367 225.231 20.7142C227.524 20.0918 229.917 19.7805 232.407 19.7805C235.027 19.7805 237.37 19.9782 239.435 20.3693C241.5 20.7605 243.283 21.2862 244.793 21.9424C247.674 23.12 249.184 24.6636 249.314 26.5605L249.31 26.5689Z" fill="white"/>
<path d="M176.653 8.8745H173.57V7.30989H178.482V13.5431C178.382 13.6735 178.192 13.8417 177.919 14.0394C177.646 14.237 177.296 14.4347 176.863 14.6324C176.43 14.8301 175.921 14.9983 175.332 15.1371C174.743 15.2759 174.092 15.3474 173.372 15.3474C172.241 15.3474 171.265 15.1581 170.445 14.7754C169.621 14.3927 168.943 13.8585 168.409 13.1687C167.871 12.479 167.476 11.6588 167.219 10.7125C166.962 9.76615 166.832 8.72729 166.832 7.5959C166.832 6.4645 166.962 5.47611 167.227 4.5466C167.492 3.61289 167.896 2.81376 168.439 2.14502C168.981 1.47628 169.675 0.950538 170.521 0.572005C171.366 0.189267 172.359 0 173.507 0C174.037 0 174.558 0.0630888 175.071 0.185061C175.585 0.311238 176.039 0.471063 176.438 0.668742C176.834 0.86642 177.158 1.08933 177.406 1.32907C177.654 1.57302 177.78 1.80434 177.78 2.02305C177.78 2.1997 177.721 2.39738 177.603 2.61608C177.486 2.83479 177.355 3.03668 177.208 3.20912H176.834C176.703 3.04929 176.531 2.87685 176.316 2.69179C176.102 2.50673 175.85 2.3427 175.555 2.19549C175.261 2.04828 174.933 1.92631 174.563 1.83378C174.197 1.73705 173.797 1.69078 173.372 1.69078C172.476 1.69078 171.736 1.85902 171.147 2.19549C170.559 2.53197 170.092 2.97779 169.738 3.52877C169.385 4.07974 169.141 4.70643 169.002 5.41302C168.864 6.11962 168.792 6.84304 168.792 7.59169C168.792 8.34034 168.868 9.12685 169.023 9.85868C169.179 10.5947 169.444 11.2466 169.818 11.8186C170.193 12.3906 170.685 12.8533 171.295 13.2066C171.904 13.5599 172.666 13.7365 173.574 13.7365C173.986 13.7365 174.365 13.6987 174.71 13.6272C175.055 13.5557 175.357 13.4674 175.622 13.3622C175.887 13.2613 176.102 13.1519 176.27 13.0426C176.438 12.9332 176.569 12.8323 176.657 12.7439V8.86608L176.653 8.8745Z" fill="white"/>
<path d="M185.199 0.201884C185.733 0.126178 186.306 0.0757066 186.92 0.0462652C187.534 0.0168237 188.122 0 188.686 0C190.713 0 192.173 0.344886 193.064 1.03466C193.952 1.72443 194.398 2.79273 194.398 4.24378C194.398 4.86625 194.309 5.42143 194.133 5.90932C193.956 6.39721 193.716 6.82201 193.422 7.18792C193.123 7.54963 192.783 7.84825 192.387 8.07537C191.996 8.3067 191.576 8.47073 191.134 8.57588L195.285 15.1539C195.138 15.2296 194.966 15.2801 194.776 15.3096C194.583 15.339 194.406 15.3558 194.242 15.3558C193.561 15.3558 193.035 15.0656 192.665 14.4894L189.111 8.93338H187.134V15.3558H185.199V0.201884ZM188.707 7.28886C189.254 7.28886 189.75 7.23839 190.196 7.13324C190.642 7.0281 191.025 6.85986 191.353 6.62433C191.676 6.3888 191.929 6.08176 192.11 5.71164C192.286 5.34152 192.375 4.89149 192.375 4.35734C192.375 3.82318 192.291 3.35633 192.118 3.00303C191.946 2.64553 191.702 2.36793 191.386 2.17026C191.067 1.96837 190.684 1.83378 190.23 1.75808C189.78 1.68237 189.279 1.64872 188.728 1.64872C188.387 1.64872 188.089 1.65713 187.828 1.66975C187.567 1.68658 187.336 1.7076 187.13 1.73705V7.29307H188.707V7.28886Z" fill="white"/>
<path d="M200.437 0.0462651C200.526 0.0336474 200.623 0.0210296 200.728 0.0126178C200.833 0.00420592 200.921 0 200.993 0C201.14 0 201.295 0.0168237 201.459 0.054677C201.624 0.0925303 201.771 0.159825 201.905 0.256561C202.04 0.353298 202.149 0.492093 202.238 0.677154C202.326 0.862214 202.372 1.10195 202.372 1.40057V9.375C202.372 9.99748 202.427 10.5695 202.54 11.0868C202.65 11.6041 202.835 12.0542 203.096 12.4327C203.356 12.8112 203.701 13.1014 204.139 13.3117C204.576 13.5178 205.127 13.623 205.796 13.623C206.818 13.623 207.604 13.4295 208.164 13.0468C208.719 12.6598 209.076 12.0247 209.24 11.1373C209.329 10.6494 209.375 10.0648 209.375 9.38341V0.0462651C209.463 0.0336474 209.56 0.0210296 209.665 0.0126178C209.77 0.00420592 209.859 0 209.93 0C210.077 0 210.233 0.0168237 210.397 0.054677C210.561 0.0925303 210.708 0.159825 210.843 0.256561C210.977 0.353298 211.087 0.492093 211.175 0.677154C211.263 0.862214 211.31 1.10195 211.31 1.40057V9.11003C211.31 9.40444 211.31 9.71148 211.297 10.0227C211.285 10.334 211.272 10.6284 211.242 10.9102C211.184 11.5326 211.041 12.1131 210.809 12.6556C210.578 13.1982 210.241 13.665 209.8 14.0646C209.354 14.4642 208.803 14.7796 208.143 15.0067C207.482 15.2381 206.687 15.3516 205.754 15.3516C204.155 15.3516 202.953 14.9941 202.145 14.2833C201.338 13.5725 200.816 12.5883 200.58 11.3265C200.522 11.0153 200.484 10.6746 200.471 10.3045C200.454 9.93439 200.45 9.55586 200.45 9.17312V0.0462651H200.437Z" fill="white"/>
<path d="M218.233 0.201829C218.779 0.142946 219.36 0.0924748 219.978 0.0588274C220.592 0.0209741 221.181 0.00415039 221.745 0.00415039C223.789 0.00415039 225.282 0.36586 226.22 1.09348C227.162 1.82111 227.629 2.90203 227.629 4.33625C227.629 5.29941 227.469 6.09853 227.149 6.73363C226.83 7.36872 226.396 7.88184 225.85 8.26458C225.303 8.65153 224.672 8.92071 223.961 9.07633C223.25 9.23194 222.51 9.30765 221.74 9.30765H220.163V15.3474H218.228V0.201829H218.233ZM221.034 7.68837C221.757 7.68837 222.409 7.64211 222.977 7.55378C223.549 7.46546 224.028 7.30143 224.42 7.06589C224.811 6.83036 225.114 6.49809 225.32 6.0775C225.526 5.65691 225.631 5.11014 225.631 4.4456C225.631 3.89883 225.534 3.44039 225.341 3.07868C225.147 2.71697 224.886 2.42676 224.55 2.21226C224.218 1.99776 223.822 1.84634 223.36 1.75802C222.901 1.6697 222.413 1.62343 221.892 1.62343C221.505 1.62343 221.173 1.63184 220.891 1.64446C220.609 1.66128 220.344 1.68231 220.092 1.71175H220.138V7.68837H221.025H221.034Z" fill="white"/>
<path d="M245.681 7.57487C245.681 8.63055 245.559 9.63156 245.319 10.5695C245.075 11.5074 244.696 12.3318 244.183 13.0342C243.67 13.7407 243.006 14.3001 242.19 14.7207C241.374 15.1371 240.394 15.3474 239.25 15.3474C238.106 15.3474 237.13 15.1287 236.331 14.6997C235.532 14.2665 234.88 13.6945 234.383 12.9837C233.883 12.2729 233.525 11.4485 233.303 10.519C233.084 9.5853 232.974 8.61373 232.974 7.6001C232.974 6.58647 233.101 5.62332 233.349 4.70222C233.597 3.78533 233.988 2.97779 234.518 2.27961C235.048 1.58143 235.717 1.02625 236.533 0.618271C237.349 0.20609 238.32 0 239.452 0C240.583 0 241.496 0.197678 242.282 0.593035C243.069 0.988392 243.712 1.53096 244.221 2.21232C244.726 2.89367 245.1 3.69701 245.331 4.62231C245.567 5.54761 245.685 6.5318 245.685 7.57487H245.681ZM243.679 7.5959C243.679 6.78836 243.603 6.02709 243.46 5.31629C243.313 4.60549 243.073 3.9788 242.745 3.44465C242.413 2.9105 241.975 2.48149 241.424 2.16605C240.873 1.85061 240.2 1.69078 239.409 1.69078C238.573 1.69078 237.874 1.85061 237.319 2.16605C236.76 2.48149 236.31 2.90629 235.965 3.44465C235.62 3.9788 235.372 4.60549 235.229 5.31629C235.082 6.02709 235.01 6.78836 235.01 7.5959C235.01 8.40343 235.082 9.14788 235.229 9.87551C235.376 10.6031 235.616 11.2466 235.956 11.8018C236.293 12.3612 236.739 12.807 237.29 13.1435C237.841 13.48 238.526 13.6482 239.351 13.6482C240.175 13.6482 240.84 13.48 241.399 13.1435C241.958 12.807 242.404 12.357 242.741 11.8018C243.077 11.2424 243.321 10.6031 243.468 9.87551C243.615 9.14788 243.687 8.39081 243.687 7.5959H243.679Z" fill="white"/>
</g>
<defs>
<clipPath id="clip0_2002_1331">
<rect width="250" height="69.1748" fill="white"/>
</clipPath>
</defs>
</svg>
